<?xml version="1.0" encoding="UTF-8"?>
<svg id="Grupo_1_xA0_Imagen" xmlns="http://www.w3.org/2000/svg" version="1.1" viewBox="0 0 185.88 64.6">
  <!-- Generator: Adobe Illustrator 29.8.2, SVG Export Plug-In . SVG Version: 2.1.1 Build 3)  -->
  <path d="M73.14,33.11c2.14,2.84,3.35,6.03,3.62,9.57v2.73c-.27,4.55-2.17,8.46-5.71,11.73-3.27,2.41-6.88,3.75-10.85,4.02H16.65c-3.86-.27-7.04-1.9-9.56-4.9-1.61-2.15-2.6-4.56-2.98-7.24v-2.73c.65-1.44,1.3-2.38,1.97-2.81.67-.43,1.7-.56,3.1-.4,2.09.59,3.13,1.66,3.13,3.21s.36,2.89,1.09,4.02c.72,1.12,1.8,1.9,3.25,2.33h44.2c2.25-.43,4.23-1.5,5.94-3.21.7-1.13,1.18-2.39,1.45-3.78v-3.22c-.11-1.98-1.02-3.66-2.73-5.06-1.29-1.01-2.79-1.66-4.5-1.93H20.27c-4.99-.26-9.33-2.25-13.02-5.94-1.72-2.14-2.76-4.48-3.14-6.99v-5.15c.54-3.37,2.23-6.34,5.07-8.92,3.37-2.41,7.07-3.74,11.09-4.01h43.15c3.8.27,7.04,1.68,9.72,4.26.36.41.68.84.99,1.28,1.74,2.51,2.63,5.4,2.63,8.68-.09.93-.51,1.76-1.22,2.51-.15.16-.3.31-.47.46-.97.7-2.17.99-3.62.89-1.39-.65-2.28-1.4-2.65-2.25-.38-.86-.63-2.11-.76-3.74-.14-1.63-1.54-2.85-4.22-3.66H19.78c-2.41.33-4.44,1.34-6.1,3.06-.86,1.39-1.29,2.94-1.29,4.66s.7,3.08,2.09,4.26c1.55,1.12,3.32,1.82,5.3,2.09h41.07c4.66.43,8.75,2.49,12.29,6.18Z"/>
  <path d="M100.51,38.4v19.54c-.59,2.04-1.98,3.11-4.18,3.22-2.03-.06-3.4-1.13-4.1-3.22v-20.81c1.34.43,2.47.7,3.3.86.23.05.59.12,1.08.19,1.53.23,2.67.24,3.08.24.28,0,.55-.01.82-.02Z"/>
  <path d="M181.74,54.65L149.03,5.72c-1.98-1.77-3.83-1.93-5.54-.48-1.72,1.34-2.09,3.24-1.12,5.71l17.28,25.79-35.11.08c-1.93-.32-3.21.38-3.86,2.09l-10.93,17.36c-.11.7-.11,1.34,0,1.93.11.59.37,1.15.8,1.69,1.5,1.87,3.54,2.06,6.11.56l10.04-15.43h38.49l9.8,15.11c.43.43.92.75,1.49.96.56.21,1.11.37,1.65.48.59-.11,1.12-.24,1.61-.4.48-.16,1.21-.78,2.17-1.85.75-1.61.7-3.16-.16-4.66Z"/>
  <path d="M99.01,21.33c-.41.74-1.01,1.42-1.7,1.95-.2.15-.4.29-.61.42-1.28.77-2.85,1.1-4.47,1.11-1.1.01-2.23-.12-3.29-.38-.08-.01-.14-.03-.21-.05-.83-.22-1.62-.49-2.32-.83-.69-.32-1.33-.73-1.96-1.15-.02-.03,0-.05.01-.07.13-.19.48-.39.61-.58.01-.02.03-.03.03-.05-.03-.37-.09-.73-.11-1.1-.05-.83-.04-1.68.02-2.52.07-1.02.21-2.03.43-3.01.14-.6.31-1.19.5-1.78.57-1.69,1.37-3.3,2.38-4.76.17,1.42.54,2.8,1.07,4.1.03.08.06.15.09.22.09.2.18.4.27.59.3.64.66,1.26,1.05,1.85.1.15.2.31.31.46.25.35.52.69.81,1.01.12.14.26.27.39.41,1.11,1.19,2.41,2.2,3.84,2.97.81.44,1.66.8,2.55,1.08.1.04.2.08.31.11Z"/>
  <path d="M106.61,15.18c-.02.25-.14.7-.2.96-.33,1.5-.82,2.98-1.42,4.42-.08.18-.15.36-.23.53-.59,1.34-1.3,2.62-2.1,3.83-.17.27-.35.53-.53.79-.51.71-1.05,1.39-1.62,2.04-.1.11-.19.23-.3.35-.07.08-.27.32-.34.36-.12.07-.76.17-.94.2-2.21.38-4.47.44-6.7.25-.24-.02-.48-.03-.71-.06l-.8,1.09c-1.43-.78-2.77-1.73-3.97-2.82-.03-.02-.05-.04-.08-.06-.06-.06-.26-.25-.48-.46-.28-.28-.58-.58-.59-.62.24-.34.54-.64.79-.97l.06-.02c.39.18.79.34,1.2.5.04.02.08.03.12.04,1.01.38,2.06.68,3.12.88.45.08.9.14,1.34.18,3.03.3,5.79-.33,8.28-2.09.27-.19.54-.37.8-.59.13-.11.26-.23.39-.35.46-.42.87-.86,1.22-1.33.52-.7.92-1.44,1.19-2.22.01-.04.03-.08.04-.12.72-2.18.45-4.59-.93-6.89l-.45-.7.45.24c1.22.72,2.35,1.58,3.37,2.56.03.02.02.05.02.08Z"/>
  <path d="M107.02,11.56c0,.33-.03.67-.05,1-.03.46-.03.92-.09,1.37-.31-.26-.61-.55-.93-.81-1.16-.95-2.46-1.73-3.86-2.29-.91-.38-1.86-.66-2.83-.84-.46-.08-.92-.14-1.38-.18-.7-.06-1.41-.07-2.12-.03-.38.02-.76.05-1.14.1-.33.04-.66.09-.99.15-1.04.2-2.07.5-3.06.9-.51-.9-.64-2.02-.41-3.03.54-.12,1.1-.21,1.65-.29,1.59-.21,3.24-.27,4.89-.19,1.14.05,2.27.18,3.39.39.75.14,1.49.31,2.21.52.38.12.73.26,1.08.42,1.43.62,2.67,1.55,3.64,2.81Z"/>
  <path d="M87.93,8.21c-1.24,1.61-2.23,3.44-2.9,5.37-.22.63-.41,1.26-.55,1.91-.27,1.12-.42,2.27-.47,3.43-.03.49-.04.98-.03,1.48,0,.1.06.24-.01.32l-.74.68h-.05c-.46-.4-.87-.84-1.25-1.31-1.01-1.28-1.7-2.8-1.96-4.42l.02-.07.83-.71s.07-.08.1-.12c.2-.26.4-.62.6-.88,1.54-2.08,3.5-3.91,5.7-5.28.23-.14.46-.3.71-.4Z"/>
  <path d="M108.55,21.58c-.09,1.16-.26,2.32-.5,3.45-.41.28-.84.53-1.27.78-1.09.64-2.23,1.18-3.41,1.63-.75.28-1.5.53-2.27.73-.06.01-.12.04-.18.05.09-.1.17-.21.26-.31.57-.66,1.11-1.33,1.62-2.03.88-1.23,1.66-2.54,2.33-3.9.16-.35.32-.7.47-1.05.51-1.16.94-2.35,1.28-3.57.13-.47.21-1.03.36-1.49.01-.02.01-.05.03-.07.29.3.56.61.81.94.1.12.45.57.47.69.03.29.04.63.06.93.05,1.07.03,2.15-.06,3.22Z"/>
  <path d="M107.94,25.72c-.09.32-.2.62-.3.94-.29.93-.62,1.84-1.02,2.73-.08.17-.26.48-.37.71-.04.09-.08.17-.09.22-.03.14,0,.34-.03.48-.01.03-.02.03-.04.05-.05.05-.35.18-.44.23-1.42.69-2.97,1.11-4.55,1.27-.2.02-.39.03-.59.04-.99.06-1.98.02-2.95-.13.1-.37.21-.74.35-1.09.86-.75,1.71-1.53,2.5-2.36.03-.01.07-.02.1-.03.15-.03.3-.07.45-.11.9-.22,1.79-.49,2.66-.82,1.21-.45,2.39-1,3.51-1.65,0,0,.01,0,.02,0l.79-.47Z"/>
  <path d="M88.39,7.29l-1.1.61c-2.24,1.3-4.25,3.01-5.87,5.04-.22.27-.5.74-.73.97-.08.09-.67.48-.8.55-.02.01-.04.02-.07.02-.03-.18-.05-.37-.06-.56-.1-1.5.18-3.07.76-4.46,2.46-1.18,5.14-1.93,7.87-2.17Z"/>
  <path d="M103.98,8.35s-.03.01-.05,0c-.03-.01-.07-.02-.1-.03-.25-.08-.52-.2-.78-.29-.87-.3-1.75-.54-2.64-.73-1.11-.24-2.24-.4-3.37-.48-1.66-.12-3.34-.08-5.02.14-.23.03-.46.09-.68.09,1.49-.96,3.09-1.79,4.75-2.44.51.1,1.03.22,1.54.37,1.1.3,2.19.72,3.22,1.24,1.11.57,2.15,1.25,3.03,2.06.01.01.02.02.03.02.02.02.04.04.07.05Z"/>
  <path d="M99.28,29.04c-.68.73-1.43,1.38-2.22,1.98l-.41,1.03-.03.04c-1.52-.28-2.99-.78-4.39-1.43-.15-.08-.32-.14-.47-.22l.47-.81.19-.32,1.53.11c1.79.04,3.57-.06,5.33-.38Z"/>
  <path d="M110.6,23.69c.01.06.01.13,0,.19-.05,1.33-.46,2.63-1.13,3.77-.6,1.02-1.4,1.92-2.37,2.58-.05.04-.11.08-.16.12-.06.03-.11.06-.16.08v-.14c0-.07,0-.14,0-.21.03-.18.45-.95.55-1.19.27-.64.51-1.29.73-1.94.16-.51.32-1.02.45-1.54.69-.59,1.4-1.16,2.06-1.77.05,0,.03.02.03.05Z"/>
  <path d="M110.6,22.94s-.22.25-.27.29c-.52.5-1.11.95-1.68,1.38.05-.49.15-.98.21-1.47.06-.53.1-1.06.14-1.59.07-1.12.07-2.24.03-3.38,0-.05-.06-.11.02-.1.21.42.44.84.63,1.27.27.62.48,1.26.63,1.91.14.56.24,1.12.29,1.69Z"/>
  <path d="M111.36,21.96l-.3-1.04-.22-.78c-.36-1.08-.85-2.11-1.45-3.07-.09-.12-.43-.57-.46-.66-.04-.12-.03-.36-.05-.51-.13-.74-.32-1.47-.44-2.22l.54.95c1.01,1.96,1.76,4.06,2.19,6.23.03.11.06.22.08.34.04.25.1.51.11.76Z"/>
  <path d="M108.33,15.59l-.77-.93c.09-.59.13-1.19.17-1.79l.04-.03c.21.91.46,1.82.56,2.75Z"/>
  <path d="M95.12,4.48l-.03.05c-1.15.48-2.27,1.03-3.35,1.67-.41.24-.81.51-1.22.75.49-1.02,1.38-1.83,2.44-2.22.7-.26,1.42-.32,2.16-.25Z"/>
  <path d="M91.71,4.12s-.03.03-.05.04c-.17.04-.34.07-.5.13-1.12.38-2.04,1.27-2.46,2.37l-.02.02c-2.04.21-4.05.66-5.97,1.35-.47.17-.97.35-1.42.55-.14.06-.27.17-.42.2.58-1.1,1.39-2.06,2.35-2.85.21-.18.45-.37.68-.53,2.24-1.55,5.19-1.77,7.81-1.28Z"/>
</svg>